<?xml version="1.0" encoding="UTF-8"?>
<svg id="Layer_1" data-name="Layer 1" xmlns="http://www.w3.org/2000/svg" viewBox="0 0 339.67 511.39">
  <defs>
    <style>
      .cls-1 {
        fill: #231f20;
      }

      .cls-2 {
        fill: rgba(1, 1, 1, 0);
        stroke: #231f20;
        stroke-linecap: round;
        stroke-linejoin: round;
        stroke-width: 6px;
      }

      .cls-3 {
        fill: #fff;
      }

      .cls-4 {
        fill: #020202;
      }

      .cls-5 {
        fill: #86c440;
      }
    </style>
  </defs>
  <g>
    <path class="cls-3" d="M147.08.24c-10.55.83-26.69,6.26-36.47,10.54C38.83,42.16,16.76,125.58,7.42,196.6c-16.61,126.28-19.55,305.43,149.32,314.4,193.21,10.26,194.76-181.38,174.4-322.4-11.33-78.46-40.38-166.89-127.65-186.35-17.75-3.96-22.78-4.75-24.19,15.21-.92,13.03-1.23,36.09.11,48.86,1.35,12.83,8.05,11.98,16.78,18.22,11.38,8.13,19.89,20.59,21.13,34.87,1.54,17.83,1.55,52.22-.05,70.02-.91,10.15-6.7,21.97-13.94,29.06-5.56,5.44-19.45,11.13-22.12,17.88-4.83,12.18-.56,37.96-1.88,52.12-1.36,14.58-17.52,13.77-19.06.98s1.02-28.77.06-42.06c-1.55-21.56-14.33-18.18-26.01-30.99-5.76-6.32-11.17-17.45-12.02-25.98-1.37-13.76-1.75-67.89,1.52-79.46,2.4-8.5,8.75-17.87,15.56-23.44,9.17-7.51,19.35-7.48,20.79-21.21,1.33-12.65,1-34.98.17-47.92-.67-10.43-.64-19.16-13.24-18.17ZM167.06,96.23c-14.28,1.39-25.58,12.92-26.81,27.18-1.32,15.23-1.6,48.09.03,63.04,3.45,31.68,49.96,34.69,57.95,4.94,2.63-9.81,2.23-57.22,1.05-68.93-1.59-15.78-16.53-27.75-32.21-26.23Z"/>
    <path class="cls-4" d="M147.08.24c12.6-.99,12.57,7.74,13.24,18.17.83,12.93,1.16,35.27-.17,47.92-1.44,13.73-11.62,13.7-20.79,21.21-6.81,5.57-13.15,14.94-15.56,23.44-3.27,11.57-2.89,65.7-1.52,79.46.85,8.53,6.26,19.66,12.02,25.98,11.68,12.81,24.46,9.43,26.01,30.99.95,13.3-1.61,29.21-.06,42.06s17.7,13.6,19.06-.98c1.32-14.16-2.95-39.94,1.88-52.12,2.68-6.75,16.56-12.43,22.12-17.88,7.24-7.09,13.03-18.91,13.94-29.06,1.6-17.8,1.6-52.19.05-70.02-1.24-14.28-9.74-26.74-21.13-34.87-8.73-6.23-15.44-5.38-16.78-18.22-1.34-12.78-1.04-35.83-.11-48.86,1.42-19.96,6.44-19.17,24.19-15.21,87.28,19.45,116.32,107.89,127.65,186.35,20.36,141.02,18.81,332.66-174.4,322.4C-12.13,502.03-9.19,322.88,7.42,196.6,16.76,125.58,38.83,42.16,110.61,10.78,120.39,6.5,136.53,1.07,147.08.24Z"/>
    <path class="cls-4" d="M167.06,96.23c15.68-1.52,30.61,10.45,32.21,26.23,1.18,11.71,1.59,59.12-1.05,68.93-7.98,29.75-54.5,26.75-57.95-4.94-1.63-14.95-1.35-47.81-.03-63.04,1.23-14.26,12.53-25.8,26.81-27.18Z"/>
    <path class="cls-5" d="M66.7,58.37c6.03-6.97,16.63-17.38,25.56-19.94,21.79-6.25,41.21,10.2,38.73,32.74-1.87,17.03-15.48,25.95-17.46,40.53-3.75,27.68,11.01,66.98-27.42,75.58-25.42,5.69-61.72-.55-58.72-33.72,2.74-30.24,19.42-72.21,39.3-95.2Z"/>
    <path class="cls-5" d="M274.03,58.37c-6.03-6.97-16.63-17.38-25.56-19.94-21.79-6.25-41.21,10.2-38.73,32.74,1.87,17.03,15.48,25.95,17.46,40.53,3.75,27.68-11.01,66.98,27.42,75.58,25.42,5.69,61.72-.55,58.72-33.72-2.74-30.24-19.42-72.21-39.3-95.2Z"/>
    <path class="cls-5" d="M170.08,202.06c-8.98,0-18.61-5.16-19.86-16.68-1.52-13.95-1.29-46.25,0-61.1.83-9.56,8.32-17.17,17.82-18.09.57-.06,1.16-.08,1.73-.08,9.82,0,18.59,7.79,19.56,17.37,1.24,12.24,1.28,57.76-.76,65.33-2.62,9.78-11.27,13.26-18.49,13.26Z"/>
  </g>
  <g>
    <circle class="cls-1" cx="169.83" cy="154.08" r="15.02"/>
    <path class="cls-2" d="M154,139.06l15.83-15.83,15.83,15.83"/>
    <path class="cls-2" d="M185.66,169.11l-15.83,15.83-15.83-15.83"/>
    <path class="cls-2" d="M153.84,125.75l15.83-15.83,15.83,15.83"/>
    <path class="cls-2" d="M185.5,182.42l-15.83,15.83-15.83-15.83"/>
  </g>
</svg>